#!OML:ASF H:\Dans Jumps\Project 1\Capture day 1\Session 1\subject.ASF
:FULLY-SPECIFIED
:DEGREES
109
root 0.517623 17.5526 -13.7936 5.6916 -1.06122 -1.70778
lowerback -1.33959 -0.336672 0.549475
upperback 3.90436 -0.542008 1.68023
thorax 4.79073 -0.284482 1.39866
lowerneck -16.0681 0.792315 -2.21029
upperneck 26.912 1.79924 -0.112771
head 11.3949 0.568481 0.593735
rclavicle 5.06901e-015 -1.37161e-014
rhumerus -18.7902 -10.6424 -84.6202
rradius 23.8834
rwrist 32.694
rhand -19.3169 -26.3322
rfingers 7.12502
rthumb 6.99921 -56.1965
lclavicle 5.06901e-015 -1.37161e-014
lhumerus -17.475 -7.88797 91.209
lradius 19.5575
lwrist 4.05546
lhand -24.8688 -4.17865
lfingers 7.12502
lthumb 1.63827 25.7948
rfemur -10.7513 -3.84118 20.0956
rtibia 19.7232
rfoot -13.9561 -1.52995
rtoes 7.46631
lfemur -9.78519 8.47708 -18.3794
ltibia 17.1044
lfoot -11.841 1.66816
ltoes -8.10699
110
root 0.518166 17.5525 -13.7939 5.68625 -1.05901 -1.70232
lowerback -1.33334 -0.335629 0.552157
upperback 3.90238 -0.540506 1.67861
thorax 4.78501 -0.283588 1.39558
lowerneck -16.0682 0.787369 -2.21114
upperneck 26.9171 1.79136 -0.108743
head 11.3969 0.565288 0.594265
rclavicle 4.32357e-015 -7.95139e-016
rhumerus -18.7939 -10.6313 -84.6272
rradius 23.8875
rwrist 32.6841
rhand -19.3126 -26.3477
rfingers 7.12502
rthumb 7.00341 -56.2118
lclavicle 4.32357e-015 -7.95139e-016
lhumerus -17.4917 -7.93909 91.2415
lradius 19.5673
lwrist 4.08535
lhand -24.8964 -4.22818
lfingers 7.12502
lthumb 1.61161 25.7455
rfemur -10.7483 -3.83854 20.087
rtibia 19.7291
rfoot -13.9602 -1.53377
rtoes 7.47365
lfemur -9.78142 8.47963 -18.3871
ltibia 17.1046
lfoot -11.8416 1.66432
ltoes -8.10283
111
root 0.518682 17.5524 -13.7942 5.68079 -1.05655 -1.69501
lowerback -1.32825 -0.33523 0.552548
upperback 3.90153 -0.539788 1.67626
thorax 4.78118 -0.28316 1.393
lowerneck -16.0707 0.783181 -2.21127
upperneck 26.9216 1.78422 -0.104108
head 11.3991 0.562579 0.595017
rclavicle 2.98177e-016 -5.1684e-015
rhumerus -18.7943 -10.6166 -84.6361
rradius 23.8916
rwrist 32.6673
rhand -19.3098 -26.362
rfingers 7.12502
rthumb 7.00609 -56.226
lclavicle 2.98177e-016 -5.1684e-015
lhumerus -17.5053 -7.9871 91.2719
lradius 19.5767
lwrist 4.11349
lhand -24.9241 -4.279
lfingers 7.12502
lthumb 1.58484 25.6949
rfemur -10.7445 -3.83634 20.076
rtibia 19.7363
rfoot -13.9671 -1.53482
rtoes 7.49657
lfemur -9.77685 8.48237 -18.3967
ltibia 17.1039
lfoot -11.8406 1.66045
ltoes -8.10757
112
root 0.51908 17.5523 -13.7945 5.67612 -1.05469 -1.68906
lowerback -1.32342 -0.334807 0.552022
upperback 3.90084 -0.539048 1.67479
thorax 4.77768 -0.282775 1.39182
lowerneck -16.0725 0.778528 -2.21361
upperneck 26.924 1.77672 -0.098502
head 11.4004 0.559635 0.596426
rclavicle 6.95746e-016 1.98785e-016
rhumerus -18.7923 -10.6013 -84.646
rradius 23.8948
rwrist 32.6488
rhand -19.3076 -26.3803
rfingers 7.12502
rthumb 7.00825 -56.2442
lclavicle 6.95746e-016 1.98785e-016
lhumerus -17.5154 -8.03862 91.3022
lradius 19.5817
lwrist 4.14597
lhand -24.95 -4.33038
lfingers 7.12502
lthumb 1.55984 25.6437
rfemur -10.7439 -3.83305 20.0679
rtibia 19.7441
rfoot -13.9728 -1.54181
rtoes 7.48259
lfemur -9.77316 8.48653 -18.4042
ltibia 17.1033
lfoot -11.8393 1.65383
ltoes -8.10631
